<mxfile host="app.diagrams.net" modified="2023-05-16T14:10:18.956Z" agent="Mozilla/5.0 (Windows NT 10.0; Win64; x64) AppleWebKit/537.36 (KHTML, like Gecko) Chrome/113.0.0.0 Safari/537.36" etag="sFAb5qAAuxsNwgSSGFB0" version="21.3.2" type="device">
  <diagram name="Page-1" id="tdHfhGkceOlnEOxhdrvR">
    <mxGraphModel dx="1290" dy="549" grid="1" gridSize="10" guides="1" tooltips="1" connect="1" arrows="1" fold="1" page="1" pageScale="1" pageWidth="827" pageHeight="1169" math="0" shadow="0">
      <root>
        <mxCell id="0" />
        <mxCell id="1" parent="0" />
        <mxCell id="_w1bNckRM3n8Sxm4YkVa-8" style="edgeStyle=orthogonalEdgeStyle;rounded=0;orthogonalLoop=1;jettySize=auto;html=1;exitX=0.5;exitY=1;exitDx=0;exitDy=0;entryX=0.5;entryY=0;entryDx=0;entryDy=0;" edge="1" parent="1" source="n_QromgMuCSa9XtbqKkX-1" target="n_QromgMuCSa9XtbqKkX-2">
          <mxGeometry relative="1" as="geometry" />
        </mxCell>
        <mxCell id="n_QromgMuCSa9XtbqKkX-1" value="&lt;font style=&quot;font-size: 14px;&quot;&gt;&lt;b&gt;Preprocessed EEG&lt;/b&gt;&lt;/font&gt;" style="rounded=0;whiteSpace=wrap;html=1;" parent="1" vertex="1">
          <mxGeometry x="165" y="50" width="160" height="40" as="geometry" />
        </mxCell>
        <mxCell id="_w1bNckRM3n8Sxm4YkVa-4" style="edgeStyle=orthogonalEdgeStyle;rounded=0;orthogonalLoop=1;jettySize=auto;html=1;exitX=0.5;exitY=1;exitDx=0;exitDy=0;entryX=0.5;entryY=0;entryDx=0;entryDy=0;" edge="1" parent="1" source="n_QromgMuCSa9XtbqKkX-2" target="n_QromgMuCSa9XtbqKkX-3">
          <mxGeometry relative="1" as="geometry" />
        </mxCell>
        <mxCell id="n_QromgMuCSa9XtbqKkX-2" value="&lt;b&gt;Extract Global Field Power peaks&lt;/b&gt;&lt;br&gt;Concatenate maps at peaks" style="rounded=1;whiteSpace=wrap;html=1;" parent="1" vertex="1">
          <mxGeometry x="120" y="120" width="250" height="50" as="geometry" />
        </mxCell>
        <mxCell id="_w1bNckRM3n8Sxm4YkVa-5" style="edgeStyle=orthogonalEdgeStyle;rounded=0;orthogonalLoop=1;jettySize=auto;html=1;exitX=0.5;exitY=1;exitDx=0;exitDy=0;entryX=0.5;entryY=0;entryDx=0;entryDy=0;" edge="1" parent="1" source="n_QromgMuCSa9XtbqKkX-3" target="_w1bNckRM3n8Sxm4YkVa-2">
          <mxGeometry relative="1" as="geometry" />
        </mxCell>
        <mxCell id="n_QromgMuCSa9XtbqKkX-3" value="&lt;font style=&quot;&quot;&gt;&lt;b&gt;Apply clustering algorithm&lt;br&gt;&lt;/b&gt;&lt;/font&gt;&lt;font style=&quot;font-size: 11px;&quot;&gt;Modified k-means iteration scheme&lt;br&gt;Repeat the algorithm&lt;br&gt;Determine optimal amount of clusters&lt;br&gt;Determine microstates&lt;br&gt;&lt;/font&gt;" style="rounded=1;whiteSpace=wrap;html=1;" parent="1" vertex="1">
          <mxGeometry x="120" y="190" width="250" height="90" as="geometry" />
        </mxCell>
        <mxCell id="_w1bNckRM3n8Sxm4YkVa-6" style="edgeStyle=orthogonalEdgeStyle;rounded=0;orthogonalLoop=1;jettySize=auto;html=1;exitX=0.5;exitY=1;exitDx=0;exitDy=0;entryX=0.5;entryY=0;entryDx=0;entryDy=0;" edge="1" parent="1" source="_w1bNckRM3n8Sxm4YkVa-2" target="_w1bNckRM3n8Sxm4YkVa-3">
          <mxGeometry relative="1" as="geometry" />
        </mxCell>
        <mxCell id="_w1bNckRM3n8Sxm4YkVa-2" value="&lt;b&gt;Backfit microstates to EEG&lt;/b&gt;&lt;font style=&quot;font-size: 6px;&quot;&gt;&lt;br&gt;&lt;/font&gt;&lt;font style=&quot;font-size: 11px;&quot;&gt;Calculate spatial correlation&lt;br&gt;Determine labels&lt;br&gt;Apply temporal smoothing&lt;br&gt;&lt;/font&gt;" style="rounded=1;whiteSpace=wrap;html=1;" vertex="1" parent="1">
          <mxGeometry x="120" y="300" width="250" height="80" as="geometry" />
        </mxCell>
        <mxCell id="_w1bNckRM3n8Sxm4YkVa-11" style="edgeStyle=orthogonalEdgeStyle;rounded=0;orthogonalLoop=1;jettySize=auto;html=1;exitX=0.5;exitY=1;exitDx=0;exitDy=0;entryX=0.5;entryY=0;entryDx=0;entryDy=0;" edge="1" parent="1" source="_w1bNckRM3n8Sxm4YkVa-3" target="_w1bNckRM3n8Sxm4YkVa-9">
          <mxGeometry relative="1" as="geometry" />
        </mxCell>
        <mxCell id="_w1bNckRM3n8Sxm4YkVa-3" value="&lt;font style=&quot;&quot;&gt;&lt;b&gt;Calculate microstate statistics&lt;br&gt;&lt;/b&gt;&lt;/font&gt;&lt;font style=&quot;font-size: 11px;&quot;&gt;Global Explained Variance&lt;br&gt;Coverage&lt;br&gt;Duration&lt;br&gt;Frequency of Occurrence&lt;br&gt;Transition probabilities&lt;br&gt;&lt;/font&gt;" style="rounded=1;whiteSpace=wrap;html=1;" vertex="1" parent="1">
          <mxGeometry x="120" y="400" width="250" height="100" as="geometry" />
        </mxCell>
        <mxCell id="_w1bNckRM3n8Sxm4YkVa-9" value="&lt;font style=&quot;&quot;&gt;&lt;b&gt;Save results table&lt;br&gt;&lt;/b&gt;&lt;/font&gt;&lt;font style=&quot;font-size: 11px;&quot;&gt;Participant name&lt;br&gt;Sex&lt;br&gt;Rumination score(s)&lt;br&gt;Microstate statistics&lt;br&gt;&lt;/font&gt;" style="rounded=1;whiteSpace=wrap;html=1;" vertex="1" parent="1">
          <mxGeometry x="120" y="520" width="250" height="90" as="geometry" />
        </mxCell>
      </root>
    </mxGraphModel>
  </diagram>
</mxfile>
